<?xml version="1.0" encoding="UTF-8"?>
<svg version="1.1" xmlns="http://www.w3.org/2000/svg" width="380" height="378">
<path d="M0 0 C1.18428085 -0.01469078 1.18428085 -0.01469078 2.39248657 -0.02967834 C20.11964778 -0.20419376 37.2023657 0.03880232 54.53125 4.23828125 C55.41828613 4.44727051 56.30532227 4.65625977 57.21923828 4.87158203 C100.42793844 15.33857799 140.80310318 41.78391483 166.53125 78.23828125 C166.9432666 78.81658691 167.3552832 79.39489258 167.77978516 79.99072266 C186.93840401 107.09836508 200.79962262 140.30179516 200.8671875 173.859375 C200.8738443 175.03935562 200.8805011 176.21933624 200.88735962 177.43507385 C200.89743107 179.92178809 200.90217836 182.40852906 200.90185547 184.89526367 C200.90620193 188.63442456 200.94250986 192.37237742 200.98046875 196.11132812 C201.04824353 210.28815184 200.21113252 223.51928655 196.53125 237.23828125 C196.22316406 238.38756104 195.91507812 239.53684082 195.59765625 240.72094727 C194.75382673 243.61305266 193.83168817 246.4550015 192.84375 249.30078125 C192.32893066 250.80354614 192.32893066 250.80354614 191.80371094 252.33666992 C184.35550558 273.51224744 173.49096862 293.41202893 158.53125 310.23828125 C157.83902344 311.03878906 157.14679688 311.83929688 156.43359375 312.6640625 C124.229124 349.31052807 79.62891443 374.0270568 30.53125 378.23828125 C24.24401369 378.60568591 17.95238731 378.62916121 11.65625 378.61328125 C10.80297119 378.61240509 9.94969238 378.61152893 9.07055664 378.61062622 C-20.47326262 378.51100236 -47.91503837 372.31773537 -74.46875 359.23828125 C-75.1174707 358.9227832 -75.76619141 358.60728516 -76.43457031 358.28222656 C-120.20547984 336.76468825 -153.89219653 297.17750557 -170.21484375 251.4609375 C-175.89106403 234.75613991 -179.57131269 217.17242117 -179.671875 199.49609375 C-179.68042511 198.28431961 -179.68042511 198.28431961 -179.68914795 197.04806519 C-179.6985301 195.34553303 -179.70510465 193.64298327 -179.70898438 191.94042969 C-179.71859589 189.40395091 -179.74964519 186.86831749 -179.78125 184.33203125 C-179.87674797 169.59813513 -178.18994818 155.10211033 -174.28125 140.86328125 C-174.0740332 140.09838379 -173.86681641 139.33348633 -173.65332031 138.54541016 C-164.99165509 107.79463457 -149.22692393 81.48626645 -127.46875 58.23828125 C-126.16164063 56.83255859 -126.16164063 56.83255859 -124.828125 55.3984375 C-93.48402702 22.45492804 -45.61007069 0.46986896 0 0 Z " fill="#2A383F" transform="translate(179.46875,-0.23828125)"/>
<path d="M0 0 C0.75216293 -0.00807175 1.50432587 -0.01614349 2.27928162 -0.02445984 C3.86332976 -0.03819765 5.44740622 -0.04896513 7.03149414 -0.05688477 C8.6204523 -0.06835097 10.20937359 -0.08871706 11.7980957 -0.1184082 C32.94393478 -0.51191119 52.4005158 4.96415156 68.05859375 19.92578125 C75.96352529 28.22030401 81.73777855 37.1892224 84.87109375 48.23828125 C85.20753906 49.34816406 85.20753906 49.34816406 85.55078125 50.48046875 C89.95337477 67.90991432 86.90435491 86.66569746 78.234375 102.1640625 C68.31060208 118.28740591 54.39186487 129.59376829 35.87109375 134.23828125 C31.50708689 134.9908704 27.29478599 135.22270487 22.87109375 135.23828125 C22.20529297 135.24520996 21.53949219 135.25213867 20.85351562 135.25927734 C16.5250565 135.3040751 12.1996168 135.29216328 7.87109375 135.23828125 C7.87109375 136.88828125 7.87109375 138.53828125 7.87109375 140.23828125 C8.53109375 140.23828125 9.19109375 140.23828125 9.87109375 140.23828125 C10.02666748 140.79700928 10.18224121 141.3557373 10.3425293 141.93139648 C11.06952703 144.51630695 11.81394301 147.09590327 12.55859375 149.67578125 C12.80287109 150.55427734 13.04714844 151.43277344 13.29882812 152.33789062 C16.36126951 162.84322753 20.75382554 170.88207849 29.87109375 177.23828125 C33.12354846 178.88835358 36.38558305 180.17276243 39.87109375 181.23828125 C40.80501953 181.53025391 40.80501953 181.53025391 41.7578125 181.828125 C44.64903021 182.38926707 47.42808676 182.37003127 50.37109375 182.36328125 C51.49515625 182.36585938 52.61921875 182.3684375 53.77734375 182.37109375 C56.37583674 182.25954228 58.39199453 181.91392674 60.87109375 181.23828125 C68.19151851 180.53465447 73.70995775 181.66526357 79.55859375 186.42578125 C83.20539132 190.86107559 85.53877952 194.95362094 86.37109375 200.67578125 C85.49932224 206.88715327 83.47056867 211.56610292 79.12109375 216.11328125 C66.08974625 224.63377769 47.13710186 223.98007359 32.30859375 221.05078125 C12.98266695 216.13934595 -3.71252365 204.9846176 -14.921875 188.4296875 C-16.07306592 186.33966127 -16.68769732 184.5719044 -17.12890625 182.23828125 C-17.78890625 182.23828125 -18.44890625 182.23828125 -19.12890625 182.23828125 C-20.29525757 179.28764413 -21.43294595 176.32669213 -22.56640625 173.36328125 C-22.89189453 172.54085937 -23.21738281 171.7184375 -23.55273438 170.87109375 C-25.78326225 164.98433978 -26.80810966 159.52187392 -27.12890625 153.23828125 C-27.78890625 153.23828125 -28.44890625 153.23828125 -29.12890625 153.23828125 C-29.1200238 153.90956055 -29.11114136 154.58083984 -29.10198975 155.27246094 C-29.0132613 162.28067481 -28.95306594 169.2887282 -28.90917969 176.29736328 C-28.88910692 178.91038498 -28.86184267 181.523362 -28.82714844 184.13623047 C-28.7784419 187.89952647 -28.75589314 191.66222674 -28.73828125 195.42578125 C-28.71763611 196.58754883 -28.69699097 197.74931641 -28.67572021 198.94628906 C-28.67381865 205.87304971 -29.38954247 210.35551895 -33.12890625 216.23828125 C-37.65888308 220.65210483 -41.74712783 222.33307186 -48.00390625 222.55078125 C-53.42607341 222.4059756 -57.73068633 221.48141997 -61.8203125 217.65625 C-66.43714086 212.54992658 -68.37408337 208.17831945 -68.39633179 201.2086792 C-68.40486176 199.9979071 -68.41339172 198.78713501 -68.42218018 197.53967285 C-68.42148118 196.20581042 -68.42055813 194.87194808 -68.41943359 193.53808594 C-68.42542155 192.12652227 -68.43222771 190.71496188 -68.43978882 189.30340576 C-68.45744447 185.47208653 -68.46214445 181.64085668 -68.46342039 177.80950069 C-68.46484458 175.40875006 -68.46911961 173.00802194 -68.47441483 170.60727692 C-68.49292467 162.21050077 -68.50108562 153.81378806 -68.49951172 145.41699219 C-68.4983151 137.62761498 -68.51932013 129.83851701 -68.55099905 122.04921031 C-68.57730944 115.33720897 -68.58787264 108.62529784 -68.5866009 101.91324544 C-68.5860949 97.9158874 -68.59157268 93.9187767 -68.612957 89.92147064 C-68.74063446 64.2388479 -68.10507631 39.94815209 -49.12890625 20.23828125 C-35.03963582 7.04969477 -19.24638209 0.20336103 0 0 Z " fill="#F9F7F5" transform="translate(194.12890625,79.76171875)"/>
<path d="M0 0 C0.33 0 0.66 0 1 0 C3.58677777 35.3526295 -16.32260716 76.34596111 -38.87109375 102.60546875 C-39.57363281 103.39566406 -40.27617187 104.18585938 -41 105 C-41.69222656 105.80050781 -42.38445312 106.60101563 -43.09765625 107.42578125 C-75.302126 144.07224682 -119.90233557 168.78877555 -169 173 C-175.28723631 173.36740466 -181.57886269 173.39087996 -187.875 173.375 C-189.15491821 173.37368576 -189.15491821 173.37368576 -190.46069336 173.37234497 C-220.00451262 173.27272111 -247.44628837 167.07945412 -274 154 C-274.6487207 153.68450195 -275.29744141 153.36900391 -275.96582031 153.04394531 C-319.7644936 131.5127585 -353.92692584 91.64400312 -369.88671875 45.6953125 C-374.39586005 32.10557956 -374.39586005 32.10557956 -374 27 C-372.42470335 29.9582955 -371.32807237 32.87923457 -370.3359375 36.078125 C-366.45048624 48.33277834 -362.17931797 59.72954584 -356 71 C-355.49855469 71.97710937 -354.99710937 72.95421875 -354.48046875 73.9609375 C-346.34447847 89.60534855 -334.95128759 103.14265811 -323 116 C-322.38898438 116.66515625 -321.77796875 117.3303125 -321.1484375 118.015625 C-296.55934243 143.75569899 -261.4507239 160.68001913 -227 168 C-226.23413574 168.16371094 -225.46827148 168.32742188 -224.67919922 168.49609375 C-177.50998608 178.0264211 -125.18683793 167.69056478 -85.10205078 141.20581055 C-45.49286789 114.43625941 -13.7069156 73.68313976 -4.16992188 26.00244141 C-2.53333027 17.37556261 -1.21659408 8.69506948 0 0 Z " fill="#020303" transform="translate(379,205)"/>
<path d="M0 0 C1.18428085 -0.01469078 1.18428085 -0.01469078 2.39248657 -0.02967834 C20.11964778 -0.20419376 37.2023657 0.03880232 54.53125 4.23828125 C55.41828613 4.44727051 56.30532227 4.65625977 57.21923828 4.87158203 C86.13918956 11.87723163 114.71086343 25.77319819 136.53125 46.23828125 C132.57807223 46.23828125 131.77547268 44.95828233 128.84375 42.36328125 C106.44702378 23.58652523 77.94472168 11.29794291 49.53125 5.23828125 C48.77602051 5.07457031 48.02079102 4.91085938 47.24267578 4.7421875 C21.98939508 -0.44456737 -6.47149464 0.28980965 -31.46875 6.23828125 C-32.36013672 6.44727051 -33.25152344 6.65625977 -34.16992188 6.87158203 C-74.74934018 16.70700749 -111.73068691 40.35759778 -137.46875 73.23828125 C-137.9023584 73.79016113 -138.3359668 74.34204102 -138.78271484 74.91064453 C-161.34086452 103.86284601 -177.43458255 142.1226619 -177.671875 179.19140625 C-177.67866272 179.92586472 -177.68545044 180.66032318 -177.69244385 181.41703796 C-177.70929856 183.77416288 -177.71563239 186.13110009 -177.71875 188.48828125 C-177.72108643 189.2900882 -177.72342285 190.09189514 -177.72583008 190.91799927 C-177.73804369 202.01336917 -177.23765212 212.71605571 -175.125 223.640625 C-174.58010903 226.62779514 -174.32699244 229.22002646 -174.46875 232.23828125 C-181.59266746 220.25151579 -179.79075426 202.15099195 -179.84375 188.67578125 C-179.85142395 187.85919037 -179.8590979 187.04259949 -179.86700439 186.20126343 C-179.9819878 170.84751838 -178.3561859 155.70769061 -174.28125 140.86328125 C-174.0740332 140.09838379 -173.86681641 139.33348633 -173.65332031 138.54541016 C-164.99165509 107.79463457 -149.22692393 81.48626645 -127.46875 58.23828125 C-126.16164063 56.83255859 -126.16164063 56.83255859 -124.828125 55.3984375 C-93.48402702 22.45492804 -45.61007069 0.46986896 0 0 Z " fill="#050505" transform="translate(179.46875,-0.23828125)"/>
<path d="M0 0 C0.66 0 1.32 0 2 0 C2.99 4.95 3.98 9.9 5 15 C4.34 14.67 3.68 14.34 3 14 C2.67 26.21 2.34 38.42 2 51 C1.34 51 0.68 51 0 51 C0 34.17 0 17.34 0 0 Z " fill="#596067" transform="translate(165,233)"/>
</svg>
